<svg width="20" height="20" xmlns="http://www.w3.org/2000/svg" xmlns:xlink="http://www.w3.org/1999/xlink" xml:space="preserve" overflow="hidden"><g transform="translate(-714 -554)"><path d="M729.625 571.292 715.875 571.292 715.875 557.542 726.765 557.542 726.348 557.125 715.458 557.125 715.458 571.708 730.042 571.708 730.042 565.875 729.625 566.292 729.625 571.292Z" stroke="#0070C0" stroke-width="0.208333" fill="#0070C0"/><path d="M728.729 560.25C723.896 560.234 719.545 563.179 717.765 567.673L718.152 567.827C719.87 563.492 724.066 560.651 728.729 560.667L731.825 560.667C731.827 560.667 731.827 560.668 731.827 560.669 731.827 560.669 731.827 560.67 731.827 560.67L728.228 564.269 728.522 564.564 732.628 560.458 728.522 556.353 728.228 556.647 731.827 560.246C731.828 560.247 731.828 560.249 731.827 560.249 731.826 560.25 731.826 560.25 731.825 560.25Z" stroke="#0070C0" stroke-width="0.208333" fill="#0070C0"/></g></svg>