<svg width="15" height="15" xmlns="http://www.w3.org/2000/svg" xmlns:xlink="http://www.w3.org/1999/xlink" xml:space="preserve" overflow="hidden"><g transform="translate(-85 -168)"><path d="M86.25 171.125 86.25 179.875 98.75 179.875 98.75 171.125 86.25 171.125ZM92.7188 176.578C92.5938 176.703 92.4062 176.703 92.2812 176.578L87.6562 172.062 97.3594 172.062 92.7188 176.578ZM90.2344 175.453 87.1875 178.516 87.1875 172.469 90.2344 175.453ZM90.6875 175.891 91.8594 177.031C92.0469 177.203 92.2812 177.297 92.5156 177.297 92.75 177.297 92.9844 177.203 93.1719 177.031L94.3438 175.891 97.375 178.938 87.6406 178.938 90.6875 175.891ZM94.7656 175.453 97.8125 172.484 97.8125 178.5 94.7656 175.453Z" fill="#0070C0"/></g></svg>