<svg width="15" height="16" xmlns="http://www.w3.org/2000/svg" xmlns:xlink="http://www.w3.org/1999/xlink" xml:space="preserve" overflow="hidden"><g transform="translate(-85 -124)"><path d="M5.45312 4.0625 9.51562 4.0625 9.51562 4.6875 5.45312 4.6875Z" fill="#262626" transform="matrix(1 0 0 1.06667 85 124)"/><path d="M5.45312 5.3125 9.51562 5.3125 9.51562 5.9375 5.45312 5.9375Z" fill="#262626" transform="matrix(1 0 0 1.06667 85 124)"/><path d="M5.45312 6.5625 9.51562 6.5625 9.51562 7.1875 5.45312 7.1875Z" fill="#262626" transform="matrix(1 0 0 1.06667 85 124)"/><path d="M12.9688 13.0625 9.84375 10.0938 12.9688 7.125 12.9688 13.0625ZM2.84375 13.4375 5.9375 10.5156 6.15625 10.3125C7 9.51562 8.32812 9.51562 9.17188 10.3125L9.39062 10.5156 12.4688 13.4375 2.84375 13.4375ZM2.34375 7.10938 5.46875 10.0781 2.34375 13.0469 2.34375 7.10938ZM4.53125 3.125 10.7812 3.125 10.7812 8.32812 9.375 9.67188C8.35938 8.89062 6.95312 8.89062 5.9375 9.67188L4.53125 8.32812 4.53125 3.125ZM11.7188 3.54688 11.7188 2.1875 9.53125 2.1875 7.65625 0.625 5.78125 2.1875 3.59375 2.1875 3.59375 3.5625 1.40625 5.64062 1.40625 14.375 13.9062 14.375 13.9062 5.64062 11.7188 3.54688Z" fill="#262626" transform="matrix(1 0 0 1.06667 85 124)"/></g></svg>